{
  "accessors": [
    {
      "bufferView": 2,
      "componentType": 5126,
      "count": 3657,
      "max": [
        -3.336822986602783,
        0.9997010231018066,
        48.97003936767578
      ],
      "min": [
        -4.563656806945801,
        -0.9221519827842712,
        47.74320602416992
      ],
      "type": "VEC3"
    },
    {
      "bufferView": 2,
      "byteOffset": 43884,
      "componentType": 5126,
      "count": 3657,
      "max": [
        0.9999992251396179,
        1.0,
        0.9999996423721313
      ],
      "min": [
        -0.9999823570251465,
        -1.0,
        -0.9999822378158569
      ],
      "type": "VEC3"
    },
    {
      "bufferView": 3,
      "componentType": 5126,
      "count": 3657,
      "max": [
        0.9999673962593079,
        0.6846641302108765,
        0.9999660849571228,
        1.0
      ],
      "min": [
        -0.9999656677246094,
        -1.0,
        -0.9999690055847168,
        1.0
      ],
      "type": "VEC4"
    },
    {
      "bufferView": 1,
      "componentType": 5126,
      "count": 3657,
      "max": [
        0.9955049753189087,
        0.9917740225791931
      ],
      "min": [
        0.0039059999398887157,
        0.0039059999398887157
      ],
      "type": "VEC2"
    },
    {
      "bufferView": 0,
      "componentType": 5125,
      "count": 10716,
      "type": "SCALAR"
    }
  ],
  "asset": {
    "extras": {
      "author": "K-vandan (https://sketchfab.com/K-vandan)",
      "license": "CC-BY-4.0 (http://creativecommons.org/licenses/by/4.0/)",
      "source": "https://sketchfab.com/3d-models/nutbolt-d7c6201d7b3f47a09afe491c6e1ed59c",
      "title": "nut&bolt"
    },
    "generator": "Sketchfab-13.58.0",
    "version": "2.0"
  },
  "bufferViews": [
    {
      "buffer": 0,
      "byteLength": 42864,
      "name": "floatBufferViews",
      "target": 34963
    },
    {
      "buffer": 0,
      "byteLength": 29256,
      "byteOffset": 42864,
      "byteStride": 8,
      "name": "floatBufferViews",
      "target": 34962
    },
    {
      "buffer": 0,
      "byteLength": 87768,
      "byteOffset": 72120,
      "byteStride": 12,
      "name": "floatBufferViews",
      "target": 34962
    },
    {
      "buffer": 0,
      "byteLength": 58512,
      "byteOffset": 159888,
      "byteStride": 16,
      "name": "floatBufferViews",
      "target": 34962
    }
  ],
  "buffers": [
    {
      "byteLength": 218400,
      "uri": "scene.bin"
    }
  ],
  "images": [
    {
      "uri": "textures/nuts_bolt_baseColor.png"
    },
    {
      "uri": "textures/nuts_bolt_metallicRoughness.png"
    },
    {
      "uri": "textures/nuts_bolt_normal.png"
    }
  ],
  "materials": [
    {
      "doubleSided": true,
      "name": "nuts_bolt",
      "normalTexture": {
        "index": 2
      },
      "pbrMetallicRoughness": {
        "baseColorFactor": [
          0.5875995287527959,
          0.5875995287527959,
          0.5875995287527959,
          1.0
        ],
        "baseColorTexture": {
          "index": 0
        },
        "metallicRoughnessTexture": {
          "index": 1
        }
      }
    }
  ],
  "meshes": [
    {
      "name": "Object_0",
      "primitives": [
        {
          "attributes": {
            "NORMAL": 1,
            "POSITION": 0,
            "TANGENT": 2,
            "TEXCOORD_0": 3
          },
          "indices": 4,
          "material": 0,
          "mode": 4
        }
      ]
    }
  ],
  "nodes": [
    {
      "children": [
        1
      ],
      "matrix": [
        0.022914821282029152,
        0.0,
        0.0,
        0.0,
        0.0,
        5.0881124384958625e-18,
        -0.022914821282029152,
        0.0,
        0.0,
        0.022914821282029152,
        5.0881124384958625e-18,
        0.0,
        0.0,
        0.0,
        0.0,
        1.0
      ],
      "name": "Sketchfab_model"
    },
    {
      "children": [
        2
      ],
      "name": "1ca0146367cb484c91b0a68ca82e3e56.obj.cleaner.materialmerger.gles"
    },
    {
      "mesh": 0,
      "name": "Object_2"
    }
  ],
  "samplers": [
    {
      "magFilter": 9729,
      "minFilter": 9987,
      "wrapS": 10497,
      "wrapT": 10497
    }
  ],
  "scene": 0,
  "scenes": [
    {
      "name": "Sketchfab_Scene",
      "nodes": [
        0
      ]
    }
  ],
  "textures": [
    {
      "sampler": 0,
      "source": 0
    },
    {
      "sampler": 0,
      "source": 1
    },
    {
      "sampler": 0,
      "source": 2
    }
  ]
}
