<?xml version="1.0" standalone="no"?>
<!DOCTYPE svg PUBLIC "-//W3C//DTD SVG 20010904//EN"
 "http://www.w3.org/TR/2001/REC-SVG-20010904/DTD/svg10.dtd">
<svg version="1.0" xmlns="http://www.w3.org/2000/svg"
 width="512.000000pt" height="512.000000pt" viewBox="0 0 512.000000 512.000000"
 preserveAspectRatio="xMidYMid meet">

<g transform="translate(0.000000,512.000000) scale(0.100000,-0.100000)"
fill="#000000" stroke="none">
<path d="M42 4763 c-17 -6 -42 -57 -42 -83 0 -12 13 -35 29 -51 l29 -29 321 0
321 0 4 -22 c17 -79 97 -899 166 -1698 44 -514 98 -1096 120 -1293 22 -197 40
-370 40 -386 0 -21 -8 -32 -38 -49 -21 -12 -62 -46 -91 -77 -201 -213 -138
-551 127 -682 74 -37 79 -38 186 -38 104 0 115 2 178 32 110 52 197 147 234
257 l16 46 1050 -2 1051 -3 12 -42 c30 -102 123 -204 233 -256 63 -30 74 -32
178 -32 107 0 112 1 186 38 269 132 329 471 122 688 -85 88 -160 122 -286 127
-73 3 -109 0 -150 -13 -135 -44 -244 -153 -287 -287 l-13 -38 -1048 0 -1048 0
-13 38 c-21 65 -49 113 -97 165 -79 84 -158 124 -267 136 l-60 6 -32 285 c-17
157 -32 293 -32 303 -1 16 88 17 1734 17 1897 0 1780 -4 1803 57 24 62 443
2026 438 2049 -4 14 -16 32 -27 42 -18 16 -152 17 -2082 22 l-2062 5 -40 362
c-38 341 -41 363 -64 387 l-24 26 -381 -1 c-210 0 -387 -3 -394 -6z m1183
-955 c4 -13 235 -1776 235 -1797 0 -8 -51 -11 -169 -11 l-169 0 -6 58 c-4 31
-38 422 -76 867 -38 446 -72 829 -74 853 l-6 42 131 0 c95 0 131 -3 134 -12z
m609 -45 c4 -32 38 -422 76 -868 38 -445 72 -829 74 -852 l6 -43 -175 0 c-173
0 -175 0 -180 23 -2 12 -54 407 -115 877 -61 470 -113 870 -116 888 l-6 32
215 0 215 0 6 -57z m686 -853 l0 -910 -180 0 c-180 0 -180 0 -181 23 0 12 -35
419 -77 905 -43 486 -76 885 -73 887 2 3 118 5 258 5 l253 0 0 -910z m680 903
c1 -5 -34 -414 -77 -910 l-78 -903 -177 0 -178 0 0 910 0 910 255 0 c140 0
255 -3 255 -7z m600 -18 c0 -13 -52 -421 -115 -905 -63 -484 -115 -883 -115
-885 0 -3 -79 -5 -176 -5 l-177 0 7 58 c3 31 37 426 76 877 39 451 73 835 76
853 l5 32 209 0 210 0 0 -25z m605 3 c-6 -28 -325 -1785 -325 -1793 0 -3 -76
-5 -168 -5 l-168 0 118 898 c64 493 117 903 118 910 0 9 50 12 215 12 l215 0
-5 -22z m515 8 c0 -10 -362 -1688 -385 -1783 -5 -22 -9 -23 -140 -23 -114 0
-135 2 -135 15 0 18 318 1774 325 1793 7 19 335 17 335 -2z m-3628 -2776 c57
-16 119 -69 150 -129 22 -42 28 -67 28 -117 0 -105 -43 -181 -130 -228 -224
-122 -470 115 -353 342 59 114 179 167 305 132z m3006 -26 c90 -56 140 -167
121 -268 -32 -170 -216 -264 -367 -187 -93 47 -141 127 -142 232 0 112 64 206
165 244 64 24 165 14 223 -21z"/>
</g>
</svg>
