<?xml version="1.0" standalone="no"?>
<!DOCTYPE svg PUBLIC "-//W3C//DTD SVG 20010904//EN"
 "http://www.w3.org/TR/2001/REC-SVG-20010904/DTD/svg10.dtd">
<svg version="1.0" xmlns="http://www.w3.org/2000/svg"
 width="597.000000pt" height="980.000000pt" viewBox="0 0 597.000000 980.000000"
 preserveAspectRatio="xMidYMid meet">

<g transform="translate(0.000000,980.000000) scale(0.100000,-0.100000)"
fill="#000000" stroke="none">
<path d="M4165 9784 c-93 -23 -207 -84 -360 -194 -204 -147 -324 -200 -455
-200 -111 0 -152 21 -270 136 -114 111 -153 134 -227 134 -71 0 -134 -35 -253
-140 -137 -121 -219 -162 -335 -168 -106 -6 -161 10 -337 100 -76 38 -164 78
-195 89 -191 65 -330 -57 -251 -220 13 -28 80 -105 168 -196 232 -240 356
-446 470 -780 l28 -80 838 0 838 0 31 105 c103 340 278 690 421 840 175 183
205 222 236 302 76 201 -93 333 -347 272z m-1250 -522 c83 -75 171 -127 260
-155 56 -17 92 -21 185 -21 181 2 317 48 502 171 40 26 78 52 85 56 7 4 -17
-41 -53 -100 -89 -145 -180 -330 -243 -489 -28 -73 -51 -137 -51 -143 0 -8
-173 -11 -616 -11 l-615 0 -15 38 c-36 87 -105 226 -163 325 -33 59 -61 108
-61 109 0 2 43 2 95 0 194 -7 384 70 550 222 33 30 63 55 67 56 4 0 37 -26 73
-58z"/>
<path d="M2005 7946 c-40 -18 -70 -53 -85 -99 -25 -79 32 -178 112 -192 18 -3
459 -4 980 -3 938 3 947 3 974 24 51 37 68 70 68 128 1 59 -16 92 -68 130 -27
21 -35 21 -989 23 -787 2 -967 0 -992 -11z"/>
<path d="M1975 7182 c-137 -208 -343 -500 -690 -977 -388 -535 -532 -749 -702
-1049 -412 -723 -597 -1384 -580 -2066 8 -308 48 -540 134 -769 189 -508 588
-933 1128 -1204 114 -57 185 -89 185 -82 0 2 -16 22 -35 45 -58 70 -112 169
-144 266 -17 51 -31 101 -31 111 0 14 -26 37 -82 75 -428 285 -712 695 -807
1164 -36 175 -44 294 -38 544 6 233 17 338 57 540 100 507 332 1026 725 1620
113 171 192 284 415 590 144 198 581 812 665 934 l79 116 732 0 731 0 108
-157 c101 -146 476 -671 795 -1113 608 -841 896 -1451 1006 -2129 35 -212 45
-602 20 -793 -90 -695 -528 -1235 -1248 -1538 l-88 -37 68 -46 c38 -26 97 -76
130 -111 l62 -65 118 58 c326 161 613 384 815 636 104 129 162 218 235 363
155 305 219 577 229 974 20 776 -204 1488 -736 2338 -119 190 -286 431 -568
818 -356 490 -536 744 -715 1012 l-63 95 -900 2 -900 1 -110 -166z"/>
<path d="M1730 4703 c-280 -30 -468 -170 -547 -407 -24 -73 -27 -95 -27 -236
-1 -123 3 -167 17 -214 70 -227 223 -371 447 -421 115 -26 291 -22 411 9 132
33 282 107 314 155 24 35 25 40 25 228 l0 193 -27 30 c-38 43 -78 49 -286 50
-228 0 -267 -14 -267 -99 0 -78 29 -91 205 -91 l136 0 -3 -107 -3 -108 -82
-33 c-270 -108 -512 -32 -593 185 -31 84 -46 216 -33 305 32 217 152 347 338
364 141 13 229 -25 309 -131 67 -91 81 -103 120 -110 49 -10 83 1 117 35 89
89 -32 286 -219 359 -105 40 -234 57 -352 44z"/>
<path d="M2982 4699 c-175 -27 -307 -123 -342 -247 -15 -54 -12 -162 5 -213
43 -126 148 -190 429 -264 156 -41 202 -61 239 -104 48 -58 42 -147 -14 -208
-51 -53 -178 -83 -272 -64 -84 18 -126 54 -177 152 -52 102 -73 127 -115 135
-79 15 -143 -55 -130 -142 10 -68 60 -156 120 -213 94 -89 204 -124 385 -123
168 2 289 43 378 130 139 136 148 376 20 504 -65 65 -162 105 -404 168 -138
36 -189 61 -221 109 -27 40 -29 61 -6 108 26 56 84 86 175 91 42 2 93 1 113
-2 48 -9 104 -61 151 -142 48 -83 70 -98 127 -91 124 17 132 184 14 299 -49
48 -131 92 -200 108 -70 15 -205 20 -275 9z"/>
<path d="M3814 4696 c-98 -43 -80 -166 26 -187 25 -4 107 -8 182 -9 l137 0 3
-509 c3 -499 3 -510 24 -538 44 -59 142 -63 195 -7 l24 26 3 514 3 514 147 0
c213 0 262 20 262 104 -1 50 -16 71 -63 91 -51 21 -895 22 -943 1z"/>
<path d="M1927 2125 c-84 -23 -157 -66 -227 -131 -118 -112 -177 -261 -167
-419 26 -388 429 -618 777 -444 133 67 247 210 279 349 15 66 13 197 -4 265
-47 181 -199 333 -380 380 -71 18 -212 18 -278 0z m238 -312 c98 -49 149 -156
122 -259 -18 -68 -58 -118 -120 -149 -196 -97 -399 107 -301 303 14 29 42 64
61 79 67 51 166 62 238 26z"/>
<path d="M3524 2124 c-25 -12 -166 -218 -664 -964 -696 -1044 -665 -991 -621
-1078 40 -78 150 -106 220 -55 14 10 311 445 659 966 614 921 632 948 632 995
0 116 -120 188 -226 136z"/>
<path d="M3771 1054 c-197 -53 -349 -209 -390 -402 -82 -385 265 -727 647
-637 240 57 413 276 412 524 -1 142 -53 264 -160 371 -114 115 -225 161 -383
159 -40 0 -96 -7 -126 -15z m262 -331 c72 -50 102 -115 95 -207 -19 -235 -344
-285 -436 -66 -23 55 -13 158 21 209 71 106 216 135 320 64z"/>
</g>
</svg>
