<?xml version="1.0" standalone="no"?>
<!DOCTYPE svg PUBLIC "-//W3C//DTD SVG 20010904//EN"
 "http://www.w3.org/TR/2001/REC-SVG-20010904/DTD/svg10.dtd">
<svg version="1.0" xmlns="http://www.w3.org/2000/svg"
 width="512.000000pt" height="512.000000pt" viewBox="0 0 512.000000 512.000000"
 preserveAspectRatio="xMidYMid meet">

<g transform="translate(0.000000,512.000000) scale(0.100000,-0.100000)"
fill="#000000" stroke="none">
<path d="M2390 5105 c-142 -27 -297 -92 -405 -169 -81 -59 -193 -175 -252
-264 -92 -138 -143 -280 -164 -454 -15 -135 -6 -528 15 -618 91 -389 373 -679
752 -771 125 -31 323 -31 448 0 378 92 663 384 752 771 21 91 30 483 15 620
-16 136 -68 295 -135 407 -59 100 -190 244 -282 309 -85 61 -233 129 -334 154
-111 28 -307 35 -410 15z m366 -175 c270 -69 488 -265 583 -526 46 -126 53
-199 49 -489 -4 -231 -7 -268 -27 -334 -82 -276 -281 -483 -551 -573 -91 -31
-102 -32 -250 -32 -148 0 -160 1 -250 32 -290 97 -503 336 -564 634 -21 103
-23 522 -2 630 62 320 300 575 616 657 106 28 289 28 396 1z"/>
<path d="M2380 2638 c-85 -24 -140 -99 -140 -191 0 -47 7 -64 60 -153 44 -74
62 -114 66 -150 3 -28 -5 -143 -20 -268 l-27 -219 67 -178 c36 -99 75 -190 86
-204 39 -50 136 -51 176 0 11 13 49 105 86 203 l67 179 -26 224 c-16 128 -24
243 -21 268 4 29 27 80 66 144 53 89 60 106 60 154 0 94 -55 167 -145 192 -49
13 -307 13 -355 -1z m335 -178 c4 -13 -6 -38 -33 -77 -57 -84 -72 -117 -88
-191 -13 -62 -12 -84 12 -289 l26 -222 -32 -91 c-18 -49 -36 -90 -40 -90 -4 0
-22 41 -40 91 l-32 90 22 182 c37 305 30 363 -60 501 -75 115 -74 116 110 116
139 0 149 -1 155 -20z"/>
<path d="M1460 2387 c-287 -110 -490 -193 -512 -210 -20 -16 -48 -44 -63 -63
-57 -75 -55 -33 -55 -1086 0 -613 4 -976 10 -988 5 -10 24 -23 41 -29 45 -16
3313 -16 3358 0 17 6 36 19 41 29 6 12 10 368 10 968 0 1052 3 1000 -66 1081
-20 23 -54 52 -77 65 -71 42 -964 416 -992 416 -60 0 -53 23 -330 -1087 -143
-574 -262 -1043 -265 -1043 -3 0 -122 469 -265 1043 -278 1118 -269 1088 -332
1087 -15 -1 -242 -83 -503 -183z m720 -1124 c148 -596 270 -1085 270 -1088 0
-3 -329 -5 -730 -5 l-730 0 2 910 3 910 35 34 c30 30 96 59 450 194 349 133
416 156 422 143 4 -9 129 -503 278 -1098z m1452 936 c222 -94 417 -179 434
-190 67 -41 64 6 64 -963 l0 -876 -730 0 c-401 0 -730 2 -730 5 0 7 539 2166
545 2183 2 6 7 12 10 12 3 0 186 -77 407 -171z"/>
</g>
</svg>
