<svg width="88" height="66" viewBox="0 0 88 66" fill="none" xmlns="http://www.w3.org/2000/svg">
<path d="M15.9963 5.30201C8.7092 8.09497 3.55491 10.2024 2.99631 10.634C2.4885 11.0403 1.77756 11.7512 1.3967 12.2336C-0.0505629 14.1379 0.000218355 13.0715 0.000218355 39.8079C0.000218355 55.3723 0.101781 64.5891 0.254125 64.8938C0.381078 65.1477 0.8635 65.4778 1.29514 65.6301C2.43772 66.0364 85.4143 66.0364 86.5569 65.6301C86.9885 65.4778 87.4709 65.1477 87.5979 64.8938C87.7502 64.5891 87.8518 55.55 87.8518 40.3157C87.8518 13.6047 87.9279 14.9251 86.176 12.8684C85.6682 12.2844 84.8049 11.5481 84.2209 11.218C82.4182 10.1516 59.7444 0.655522 59.0334 0.655522C57.51 0.655522 57.6877 0.071538 50.6545 28.2551C47.0237 42.8293 44.0022 54.7375 43.926 54.7375C43.8498 54.7375 40.8283 42.8293 37.1975 28.2551C30.1389 -0.131587 30.3674 0.630132 28.7678 0.655522C28.3869 0.680913 22.6233 2.76294 15.9963 5.30201ZM34.2776 33.8411C38.0354 48.9739 41.133 61.3899 41.133 61.4661C41.133 61.5422 32.7795 61.593 22.5979 61.593H4.06272L4.1135 38.4876L4.18967 15.3821L5.07834 14.5188C5.84006 13.7571 7.51584 13.0208 16.5041 9.59302C25.3655 6.21607 27.0666 5.63208 27.219 5.96216C27.3205 6.19068 30.4944 18.7336 34.2776 33.8411ZM71.1447 10.0754C76.7815 12.4622 81.7326 14.6204 82.1643 14.8997C83.8654 15.9407 83.7893 14.7473 83.7893 39.3508V61.593H65.2541C55.0725 61.593 46.719 61.5422 46.719 61.4661C46.719 61.2883 60.4045 6.46998 60.5569 6.03833C60.6076 5.88599 60.7346 5.73365 60.8108 5.73365C60.8869 5.73365 65.5334 7.68872 71.1447 10.0754Z" fill="url(#paint0_linear_134_16)"/>
<defs>
<linearGradient id="paint0_linear_134_16" x1="43.9261" y1="65.9348" x2="43.9261" y2="0.649429" gradientUnits="userSpaceOnUse">
<stop stop-color="#FF9901" stop-opacity="0.79"/>
<stop offset="1" stop-color="white"/>
</linearGradient>
</defs>
</svg>
